<?xml version="1.0" standalone="no"?>
<!DOCTYPE svg PUBLIC "-//W3C//DTD SVG 20010904//EN"
 "http://www.w3.org/TR/2001/REC-SVG-20010904/DTD/svg10.dtd">
<svg version="1.0" xmlns="http://www.w3.org/2000/svg"
 width="1024.000000pt" height="1024.000000pt" viewBox="0 0 1024.000000 1024.000000"
 preserveAspectRatio="xMidYMid meet">
<metadata>
Created by potrace 1.11, written by Peter Selinger 2001-2013
</metadata>
<g transform="translate(0.000000,1024.000000) scale(0.100000,-0.100000)"
fill="#000000" stroke="none">
<path d="M5534 8507 l-36 -33 -924 -3194 c-672 -2322 -923 -3203 -919 -3225 7
-40 30 -72 64 -89 53 -28 879 -266 921 -266 58 0 95 25 125 85 30 59 1836
6299 1843 6366 5 55 -16 102 -56 123 -15 7 -220 71 -456 140 -485 142 -505
146 -562 93z"/>
<path d="M2883 7072 c-50 -27 -2001 -1862 -2018 -1898 -19 -40 -19 -68 0 -108
17 -36 1968 -1871 2018 -1898 18 -9 45 -17 60 -18 37 0 100 33 129 68 12 16
153 168 312 337 161 172 295 323 303 342 18 45 9 85 -30 129 -16 20 -300 272
-629 561 -329 290 -598 529 -598 533 0 4 269 243 598 532 698 614 641 562 658
605 30 71 21 83 -326 455 -176 189 -334 351 -352 361 -41 21 -84 21 -125 -1z"/>
<path d="M7264 7076 c-33 -15 -648 -666 -677 -719 -25 -43 -17 -100 20 -143
15 -18 298 -270 628 -560 330 -289 600 -530 600 -534 0 -4 -270 -245 -600
-534 -330 -290 -613 -542 -628 -560 -37 -43 -45 -100 -20 -143 29 -53 641
-700 678 -717 44 -21 83 -20 122 4 32 19 1706 1583 1911 1784 68 67 105 112
111 134 17 58 -2 90 -111 198 -204 201 -1879 1765 -1911 1784 -37 23 -79 25
-123 6z"/>
</g>
</svg>
