<svg width="455" height="250" viewBox="0 0 455 250" fill="none" xmlns="http://www.w3.org/2000/svg">
<path d="M40.96 103.861C40.96 97.0738 37.6769 83.409 42.1687 77.6064C45.7415 72.9911 56.0867 71.0488 61.778 69.9537C73.817 67.6372 86.7788 67.5811 94.0124 77.4887C107.519 95.9886 102.137 119.016 111.07 138.592C114.57 146.263 132.78 155.621 135.85 143.361C139.576 128.48 144.018 107.642 135.111 93.7359C130.294 86.2136 124.146 76.2359 117.114 70.0715C113.995 67.3375 107.952 67.1638 103.817 68.07C102.118 68.4423 94.0238 71.8966 95.6242 74.1921C97.0135 76.1849 102.283 76.4053 104.489 76.9C112.34 78.6605 119.857 80.1701 127.926 81.0795C149.018 83.4568 169.072 88.2674 176.345 108.099C181.467 122.069 167.35 130.811 162.779 142.831C159.436 151.622 183.689 148.756 187.895 144.479C198.696 133.496 216.119 103.655 205.087 89.262C199.423 81.873 188.524 77.1621 178.762 75.7227C168.264 74.1746 153.012 73.7305 142.566 75.8993C115.095 81.6025 131.817 105.911 140.014 119.225C150.491 136.243 159.371 160.519 153.378 180.152C147.605 199.062 119.863 204.147 102.071 196.988C82.1359 188.967 62.931 175.103 65.4044 153.662C67.7783 133.085 110.362 122.47 128.933 131.882C143.823 139.428 151.204 156.912 170.301 157.842C192.372 158.917 202.938 138.919 202.938 121.874C202.938 112.193 195.379 105.199 186.955 99.6226C172.802 90.2547 157.957 80.2142 141.424 74.3099C121.853 67.3204 101.387 64.4596 82.5961 55.6491C70.3681 49.9158 47.9119 42.396 48.2127 28.1583C48.7836 1.1336 100.624 6.37757 119.867 6.37757C127.87 6.37757 138.067 4.72969 144.312 10.2039C150.097 15.275 154.715 23.7537 154.586 30.9839C154.397 41.5957 140.82 47.9966 132.828 54.2951C121.308 63.3742 109.133 72.3571 96.5643 80.3143C78.9269 91.4803 58.486 104.302 55.5326 124.582C51.1436 154.719 88.4755 160.418 115.368 157.43C123.287 156.55 135.002 154.314 136.186 146.01C137.848 134.353 132.28 121.64 131.686 109.924C131.321 102.714 131.48 99.581 140.215 98.0921C155.655 95.4604 165.103 109.767 171.241 119.991C178.823 132.619 182.282 146.821 189.641 159.549C191.98 163.594 197.659 169.197 203.542 166.731C215.59 161.68 213.578 134.521 213.75 125.701C214.034 111.136 212.147 96.6283 212.608 82.0803C212.792 76.2806 219.49 91.5372 219.592 91.8522C225.435 109.836 225.69 130.084 235.038 147.128C238.372 153.207 243.073 160.189 250.014 163.611C253.881 165.518 253.75 164.939 254.312 160.609C256.539 143.427 255.374 125.14 254.849 107.864C254.506 96.5824 249.372 90.4934 237.993 85.8478C219.964 78.4871 200.859 94.9092 188.298 103.979C154.487 128.392 123.471 155.002 85.5509 174.619C82.799 176.043 56.7905 186.353 56.6742 181.565C56.2755 165.137 56.4395 148.24 62.3153 132.47C71.8556 106.865 93.6347 86.8774 123.426 79.7256C142.141 75.2331 160.474 74.1921 179.702 74.1921C189.101 74.1921 201.003 74.5932 208.243 68.2466C215.84 61.5877 216.871 48.9294 211.802 40.9324C204.744 29.7959 192.166 31.4653 179.971 34.1627C156.814 39.2849 144.347 52.6658 151.229 73.7801C156.73 90.658 170.101 104.899 175.539 121.992C180.919 138.905 183.637 162.008 176.747 178.916C162.799 213.152 109.556 209.545 78.4325 200.049C59.1131 194.155 33.7783 186.397 20.0076 172.5C1.43162 153.753 1.58692 120.988 4.36045 97.7977C6.94333 76.2017 20.5258 63.7696 42.2359 55.1193C62.7884 46.9302 83.9879 37.3159 106.503 34.1627C121.688 32.0362 140.958 30.4937 154.318 38.4011C169.838 47.5871 180.821 62.8828 189.373 77.1355C202.649 99.262 212.974 139.44 183.732 155.664C173.102 161.561 160.589 163.783 148.274 165.082C136.267 166.349 122.881 168.065 110.868 166.083C91.8021 162.937 81.8724 146.718 79.6413 131.175C77.806 118.39 77.2653 105.845 86.894 95.3842C97.3219 84.0546 113.115 77.974 122.956 65.7153C129.001 58.186 133.427 48.6825 132.761 39.343C132.24 32.0346 124.761 28.6768 118.39 25.3915C112.781 22.4994 106.156 17.4418 99.3848 17.0325C85.9981 16.2232 75.9833 24.5902 69.2994 34.1627C61.0712 45.9468 60.864 60.6036 61.778 73.9567C62.5658 85.4651 66.3615 100.157 79.2383 105.921C96.0954 113.467 116.97 112.807 135.111 116.694C160.748 122.187 178.687 139.217 185.209 161.55C191.201 182.069 193.141 210.712 169.763 223.714C152.568 233.278 126.265 231.377 108.921 223.596C88.932 214.629 79.5122 201.195 81.3873 181.212C82.6031 168.255 88.449 156.267 94.8855 144.715C102.846 130.425 112.443 116.199 126.381 105.745C147.093 90.2098 171.962 86.3083 197.767 81.6682C210.031 79.4629 224.781 77.528 235.844 72.0729C252.286 63.9658 252.498 44.8539 252.498 30.3364C252.498 21.3528 251.872 17.6341 261.631 11.7344C275.676 3.24413 292.067 1.90712 308.371 6.61304C329.124 12.6028 337.664 26.4956 348.06 41.8743C352.953 49.1119 364.139 57.9715 374.586 53.0001C382.181 49.3858 383.13 40.492 392.181 37.6358C404.982 33.5963 414.664 25.5173 426.564 20.1524C431.225 18.0511 435.238 15.8139 440.465 14.7955C444.287 14.051 447.845 10.616 451.949 10.616" stroke="#FF006E" stroke-width="6" stroke-linecap="round" stroke-linejoin="round"/>
<path d="M41.0117 120.68C41.0117 113.893 37.7287 100.228 42.2205 94.4257C45.7932 89.8105 56.1384 87.8682 61.8298 86.7731C73.8688 84.4565 86.8306 84.4004 94.0642 94.308C107.571 112.808 102.189 135.836 111.122 155.412C114.622 163.082 132.831 172.441 135.902 160.18C139.628 145.299 144.069 124.462 135.163 110.555C130.345 103.033 124.198 93.0552 117.166 86.8908C114.047 84.1569 108.004 83.9831 103.869 84.8893C102.17 85.2617 94.0756 88.7159 95.6759 91.0115C97.0652 93.0043 102.334 93.2247 104.54 93.7193C112.391 95.4798 119.908 96.9895 127.978 97.8989C149.07 100.276 169.124 105.087 176.396 124.919C181.519 138.888 167.402 147.631 162.831 159.65C159.488 168.441 183.741 165.575 187.947 161.298C198.748 150.316 216.171 120.474 205.139 106.081C199.475 98.6924 188.576 93.9815 178.814 92.542C168.316 90.9939 153.064 90.5498 142.617 92.7186C115.147 98.4218 131.869 122.731 140.065 136.045C150.543 153.062 159.423 177.338 153.429 196.972C147.656 215.881 119.915 220.967 102.123 213.808C82.1876 205.786 62.9827 191.922 65.4562 170.482C67.83 149.904 110.414 139.29 128.985 148.701C143.875 156.247 151.255 173.731 170.352 174.661C192.424 175.736 202.99 155.739 202.99 138.694C202.99 129.012 195.431 122.018 187.007 116.442C172.854 107.074 158.009 97.0336 141.476 91.1292C121.904 84.1398 101.439 81.2789 82.6478 72.4684C70.4198 66.7351 47.9637 59.2153 48.2645 44.9776C48.8354 17.9529 100.676 23.1969 119.919 23.1969C127.921 23.1969 138.118 21.549 144.363 27.0232C150.148 32.0943 154.767 40.5731 154.638 47.8032C154.449 58.4151 140.872 64.8159 132.88 71.1145C121.36 80.1935 109.185 89.1764 96.6161 97.1336C78.9786 108.3 58.5378 121.122 55.5844 141.401C51.1954 171.539 88.5272 177.237 115.42 174.249C123.339 173.369 135.053 171.134 136.238 162.829C137.9 151.173 132.332 138.459 131.738 126.744C131.373 119.534 131.532 116.4 140.267 114.911C155.707 112.28 165.154 126.587 171.293 136.81C178.875 149.439 182.333 163.64 189.693 176.368C192.032 180.413 197.711 186.017 203.594 183.55C215.642 178.499 213.63 151.34 213.802 142.52C214.086 127.956 212.199 113.448 212.66 98.8996C212.844 93.1 219.542 108.357 219.644 108.672C225.487 126.656 225.742 146.903 235.09 163.947C238.424 170.027 243.125 177.008 250.065 180.43C253.933 182.337 253.802 181.758 254.363 177.428C256.591 160.246 255.426 141.959 254.901 124.683C254.557 113.402 249.424 107.313 238.045 102.667C220.016 95.3064 200.911 111.729 188.35 120.798C154.539 145.211 123.522 171.821 85.6027 191.438C82.8508 192.862 56.8422 203.173 56.726 198.385C56.3272 181.956 56.4913 165.059 62.367 149.29C71.9073 123.685 93.6865 103.697 123.478 96.5449C142.192 92.0524 160.526 91.0115 179.754 91.0115C189.153 91.0115 201.055 91.4125 208.295 85.0659C215.891 78.407 216.923 65.7488 211.854 57.7517C204.796 46.6153 192.218 48.2846 180.023 50.982C156.865 56.1043 144.398 69.4851 151.28 90.5994C156.782 107.477 170.153 121.718 175.59 138.811C180.971 155.725 183.688 178.827 176.799 195.736C162.851 229.971 109.608 226.365 78.4842 216.869C59.1648 210.974 33.8301 203.216 20.0593 189.319C1.48337 170.573 1.63867 137.807 4.41221 114.617C6.99508 93.021 20.5776 80.5889 42.2877 71.9386C62.8402 63.7496 84.0397 54.1352 106.555 50.982C121.739 48.8555 141.01 47.313 154.369 55.2204C169.889 64.4064 180.872 79.7021 189.424 93.9548C202.701 116.081 213.025 156.26 183.783 172.483C173.153 178.381 160.641 180.603 148.325 181.902C136.319 183.168 122.933 184.885 110.92 182.903C91.8538 179.757 81.9241 163.538 79.693 147.995C77.8577 135.209 77.317 122.665 86.9458 112.204C97.3737 100.874 113.167 94.7933 123.008 82.5346C129.052 75.0054 133.479 65.5019 132.813 56.1623C132.292 48.854 124.813 45.4962 118.441 42.2109C112.833 39.3188 106.207 34.2611 99.4366 33.8518C86.0498 33.0425 76.0351 41.4095 69.3511 50.982C61.1229 62.7661 60.9158 77.423 61.8298 90.776C62.6175 102.284 66.4132 116.977 79.2901 122.741C96.1472 130.286 117.021 129.626 135.163 133.513C160.8 139.007 178.738 156.036 185.261 178.37C191.253 198.889 193.193 227.531 169.815 240.533C152.62 250.097 126.317 248.196 108.973 240.415C88.9837 231.448 79.564 218.015 81.4391 198.031C82.6549 185.074 88.5008 173.087 94.9372 161.534C102.898 147.245 112.495 133.018 126.433 122.564C147.144 107.029 172.014 103.128 197.819 98.4876C210.083 96.2823 224.832 94.3473 235.896 88.8923C252.338 80.7851 252.55 61.6732 252.55 47.1557C252.55 38.1721 251.924 34.4534 261.683 28.5538C275.728 20.0635 292.119 18.7265 308.423 23.4324C329.175 29.4221 337.715 43.3149 348.112 58.6936C353.005 65.9312 364.191 74.7908 374.638 69.8194C382.233 66.2052 383.182 57.3113 392.233 54.4552C405.033 50.4157 414.715 42.3366 426.616 36.9717C431.277 34.8705 435.289 32.6332 440.517 31.6149C444.339 30.8704 447.896 27.4353 452.001 27.4353" stroke="#2708A0" stroke-width="6" stroke-linecap="round" stroke-linejoin="round"/>
</svg>
