<svg width="1440" height="272" viewBox="0 0 1440 272" fill="none" xmlns="http://www.w3.org/2000/svg">
<path d="M761.458 90.621L761.456 90.6568L761.454 90.6926C756.979 197.13 821.052 254.449 885.075 250.993C970.591 246.376 1019.02 167.351 1013.82 94.1989C1011.84 66.3531 994.714 44.0492 970.105 29.2284C945.539 14.4339 913.089 6.75301 878.824 7.87794L878.714 7.88156L878.604 7.88875C859.164 9.15634 836.752 11.7623 816.776 19.2482C796.69 26.7753 778.523 39.4549 768.598 61.1104L768.545 61.2259L768.497 61.3434C764.648 70.6375 762.168 77.1142 761.458 90.621Z" stroke="#FF006E" stroke-width="13.6853"/>
<path d="M1350.17 89.4186L1350.17 89.5025L1350.18 89.5865C1351.66 142.7 1337.39 183.655 1313.98 211.148C1290.54 238.673 1258.28 252.262 1224.99 250.998C1185.18 249.488 1151.49 227.536 1128.82 197.498C1106.19 167.507 1094.07 128.849 1097.82 92.7734C1100.71 65.0489 1118.53 43.5499 1143.15 29.2251C1167.74 14.9222 1199.63 7.38503 1232.44 7.43888L1232.66 7.43923L1232.87 7.45337C1252.3 8.7198 1274.03 11.1884 1293.61 18.4676C1313.33 25.8002 1331.21 38.1474 1342.28 59.2581L1342.43 59.5324L1342.55 59.8185C1342.76 60.3292 1342.97 60.8333 1343.17 61.3323C1346.62 69.6143 1349.49 76.5109 1350.17 89.4186Z" stroke="#FF006E" stroke-width="13.6853"/>
<path d="M0 47.7618C0 47.3413 -0.146754 46.9997 0.273719 47.0005C16.5037 47.0313 749.107 48.393 759.152 43.6975C765.801 40.5893 775.689 34.7639 775.689 34.7639L787.222 28.6628L807.024 19.7291C807.024 19.7291 809.635 18.6396 816.598 16.2428C823.561 13.846 830.089 11.8849 836.617 10.5775C843.145 9.27017 848.499 8.20075 856.201 7.30912C864.405 6.35941 868.874 5.97035 877.308 6.00175C885.742 6.03316 898.851 7.52702 898.851 7.52702L812.464 23.2154L777.213 48.4912L762.198 78.3428L763.504 107.976L767.856 136.085L788.745 202.325C788.745 202.325 782.435 193.827 782 193.173C781.565 192.52 777.464 186.652 775.037 182.061C773.078 178.356 770.685 173.127 770.685 173.127L765.245 157.874L762.198 148.723L757.411 131.073C757.411 131.073 751.101 96.8639 749.36 92.9417C747.619 89.0196 743.05 84.4439 743.05 84.4439C743.05 84.4439 736.739 78.3428 734.346 78.3428C731.952 78.3428 0 79 0 79V47.7618Z" fill="#FF006E"/>
<path d="M1379.83 54.5063C1379.77 54.5028 1379.72 54.4951 1379.67 54.478C1378.43 54.1045 1362.52 49.2575 1352.76 44.6958C1346.11 41.5875 1336.22 35.7621 1336.22 35.7621L1324.69 29.6611L1304.89 20.7274C1304.89 20.7274 1302.28 19.6379 1295.32 17.2411C1288.35 14.8442 1281.82 12.8832 1275.3 11.5758C1268.77 10.2684 1263.42 9.19899 1255.71 8.30737C1247.51 7.35765 1243.04 6.96859 1234.61 7C1226.17 7.03141 1213.06 8.52526 1213.06 8.52526L1299.45 24.2137L1334.7 49.4895L1349.72 79.341L1348.41 108.975L1344.06 137.083L1323.17 203.323C1323.17 203.323 1329.48 194.825 1329.91 194.172C1330.35 193.518 1334.45 187.651 1336.88 183.059C1338.84 179.355 1341.23 174.125 1341.23 174.125L1346.67 158.873L1349.72 149.721L1354.5 132.072C1354.5 132.072 1360.81 97.8621 1362.55 93.94C1364.29 90.0179 1368.86 85.4421 1368.86 85.4421C1368.86 85.4421 1375.17 79.341 1377.57 79.341C1379.8 79.341 1432.36 79.0963 1439.26 79.0642C1439.68 79.0623 1440 78.7225 1440 78.304V58.0607L1379.83 54.5063Z" fill="#FF006E"/>
<path d="M1020.71 116.91C1020.05 123.665 1016.35 133.47 1016.35 133.47L1006.78 155.695C1006.78 155.695 1010.56 118.635 1012.65 103.183C1013.39 97.753 1016.27 93.93 1015.92 95.7742C1015.05 100.35 1017.01 104.708 1017.01 104.708L1020.05 111.463C1020.05 111.463 1020.91 114.815 1020.71 116.91Z" fill="#FF006E"/>
<path d="M1091.05 116.795C1091.71 123.549 1095.41 133.355 1095.41 133.355L1104.98 155.58C1104.98 155.58 1101.2 118.52 1099.11 103.067C1098.37 97.6378 1095.49 93.8148 1095.84 95.659C1096.71 100.235 1094.75 104.593 1094.75 104.593L1091.71 111.347C1091.71 111.347 1090.85 114.699 1091.05 116.795Z" fill="#FF006E"/>
<path d="M1000.9 55.6816C1000.9 55.6816 1009.39 67.448 1016.35 69.6269C1019.62 70.0627 1037.9 64.1795 1053.35 64.1795C1071.21 64.1795 1079.68 66.3585 1089.9 69.1911C1100.78 71.3701 1107.53 59.168 1107.53 59.168L1097.3 97.2995L1096 95.9922C1096 95.9922 1094.57 88.3377 1088.16 85.969C1074.02 80.7395 1067.91 78.9964 1052.69 78.9964C1039.85 78.9964 1023.32 85.5332 1020.05 88.3658C1016.79 91.1985 1015.05 97.7353 1015.05 97.7353L1000.9 55.6816Z" fill="#FF006E"/>
<g opacity="0.7">
<path d="M774.193 104.325L774.191 104.361L774.19 104.397C769.714 210.834 833.787 268.153 897.811 264.697C983.326 260.081 1031.76 181.055 1026.56 107.903C1024.58 80.0572 1007.45 57.7533 982.84 42.9325C958.275 28.138 925.824 20.4571 891.56 21.582L891.449 21.5857L891.339 21.5929C871.899 22.8604 849.488 25.4664 829.512 32.9523C809.426 40.4794 791.258 53.159 781.334 74.8145L781.281 74.93L781.232 75.0475C777.384 84.3416 774.903 90.8183 774.193 104.325Z" stroke="#3A0CA3" stroke-width="13.6853"/>
<path d="M1362.9 103.123L1362.91 103.207L1362.91 103.291C1364.4 156.404 1350.12 197.359 1326.71 224.852C1303.28 252.377 1271.02 265.966 1237.72 264.702C1197.92 263.192 1164.22 241.24 1141.56 211.203C1118.93 181.211 1106.8 142.554 1110.56 106.477C1113.45 78.753 1131.27 57.254 1155.89 42.9292C1180.47 28.6263 1212.37 21.0891 1245.18 21.143L1245.39 21.1433L1245.61 21.1575C1265.03 22.4239 1286.76 24.8925 1306.34 32.1717C1326.07 39.5043 1343.95 51.8515 1355.02 72.9622L1355.16 73.2365L1355.28 73.5226C1355.49 74.0333 1355.7 74.5374 1355.91 75.0364C1359.36 83.3184 1362.23 90.215 1362.9 103.123Z" stroke="#3A0CA3" stroke-width="13.6853"/>
<path d="M0 62.7604C0 62.3405 -0.151709 62 0.268249 62C16.4768 62.0027 761.84 62.0981 771.887 57.4016C778.537 54.2934 788.425 48.468 788.425 48.468L799.958 42.3669L819.759 33.4332C819.759 33.4332 822.37 32.3437 829.333 29.9469C836.297 27.5501 842.825 25.589 849.353 24.2816C855.88 22.9743 861.234 21.9048 868.937 21.0132C877.14 20.0635 881.61 19.6744 890.044 19.7059C898.477 19.7373 911.586 21.2311 911.586 21.2311L825.199 36.9195L789.948 62.1953L774.934 92.0469L776.239 121.681L780.591 149.789L801.481 216.029C801.481 216.029 795.17 207.531 794.735 206.877C794.3 206.224 790.2 200.357 787.772 195.765C785.814 192.061 783.42 186.831 783.42 186.831L777.98 171.578L774.934 162.427L770.146 144.777C770.146 144.777 763.836 110.568 762.095 106.646C760.354 102.724 755.785 98.148 755.785 98.148C755.785 98.148 750.581 92.0469 744 89.5C737.419 86.9531 0 90 0 90V62.7604Z" fill="#3A0CA3"/>
<path d="M1440 67.5C1440 67.5 1375.65 62.5872 1365.5 57.8391C1358.85 54.7309 1348.96 48.9055 1348.96 48.9055L1337.43 42.8044L1317.63 33.8707C1317.63 33.8707 1315.01 32.7812 1308.05 30.3844C1301.09 27.9876 1294.56 26.0265 1288.03 24.7191C1281.5 23.4118 1276.15 22.3423 1268.45 21.4507C1260.24 20.501 1255.77 20.1119 1247.34 20.1434C1238.91 20.1748 1225.8 21.6686 1225.8 21.6686L1312.19 37.357L1347.44 62.6328L1362.45 92.4844L1361.15 122.118L1356.79 150.227L1335.9 216.466C1335.9 216.466 1342.21 207.969 1342.65 207.315C1343.08 206.661 1347.19 200.794 1349.61 196.202C1351.57 192.498 1353.96 187.269 1353.96 187.269L1359.4 172.016L1362.45 162.864L1367.24 145.215C1367.24 145.215 1373.55 111.005 1375.29 107.083C1377.03 103.161 1381.6 98.5855 1381.6 98.5855C1381.6 98.5855 1387.91 92.4844 1390.3 92.4844C1392.7 92.4844 1440 92.5 1440 92.5V67.5Z" fill="#3A0CA3"/>
<path d="M1033.44 130.614C1032.79 137.369 1029.09 147.174 1029.09 147.174L1019.52 169.399C1019.52 169.399 1023.3 132.339 1025.39 116.887C1026.12 111.457 1029.01 107.634 1028.65 109.478C1027.78 114.054 1029.74 118.412 1029.74 118.412L1032.79 125.167C1032.79 125.167 1033.64 128.519 1033.44 130.614Z" fill="#3A0CA3"/>
<path d="M1103.79 130.499C1104.44 137.254 1108.14 147.059 1108.14 147.059L1117.72 169.284C1117.72 169.284 1113.93 132.224 1111.84 116.771C1111.11 111.342 1108.23 107.519 1108.58 109.363C1109.45 113.939 1107.49 118.297 1107.49 118.297L1104.44 125.051C1104.44 125.051 1103.59 128.404 1103.79 130.499Z" fill="#3A0CA3"/>
<path d="M1013.64 69.3857C1013.64 69.3857 1022.13 81.1521 1029.09 83.331C1032.35 83.7668 1050.63 77.8836 1066.08 77.8836C1083.95 77.8836 1092.41 80.0626 1102.64 82.8952C1113.52 85.0742 1120.26 72.8721 1120.26 72.8721L1110.04 111.004L1108.73 109.696C1108.73 109.696 1107.3 102.042 1100.9 99.6731C1086.75 94.4436 1080.65 92.7005 1065.43 92.7005C1052.59 92.7005 1036.05 99.2373 1032.79 102.07C1029.52 104.903 1027.78 111.439 1027.78 111.439L1013.64 69.3857Z" fill="#3A0CA3"/>
</g>
</svg>
