<svg width="599" height="170" viewBox="0 0 599 170" fill="none" xmlns="http://www.w3.org/2000/svg">
<g clip-path="url(#clip0_1212_1219)">
<path d="M0.0343811 16.6853C0.0343811 16.6853 321.202 9.8673 351.317 15.3062C381.432 20.7452 382.379 20.4428 400.262 27.3464C409.358 30.858 585.974 108.114 587.855 110.121C589.736 112.128 589.11 129.184 587.855 140.221C586.314 146.617 580.982 151.157 576.562 148.248C565.893 141.224 404.53 48.6177 400.262 46.9118C386.452 41.3929 366.607 36.7759 343.788 35.3729C319.317 33.8682 0.0352725 36.7316 0.0352725 36.7316L0.0343811 16.6853Z" fill="#FF006E"/>
<path opacity="0.8" d="M0.0341359 31.1186C0.0341359 31.1186 330.779 24.8106 360.894 30.2496C391.009 35.6885 391.956 35.3861 409.839 42.2897C418.935 45.8014 595.551 123.058 597.432 125.064C599.313 127.071 598.687 144.128 597.432 155.164C595.89 161.561 590.559 166.101 586.139 163.191C575.47 156.168 414.107 63.561 409.839 61.8551C396.029 56.3362 376.184 51.7193 353.365 50.3162C328.894 48.8116 0.0341357 53.1688 0.0341357 53.1688L0.0341359 31.1186Z" fill="#3A0CA3"/>
</g>
<defs>
<clipPath id="clip0_1212_1219">
<rect width="599" height="170" fill="white"/>
</clipPath>
</defs>
</svg>
